<svg xmlns="http://www.w3.org/2000/svg" version="1.1" xmlns:xlink="http://www.w3.org/1999/xlink" xmlns:svgjs="http://svgjs.dev/svgjs" width="1000" height="1000" viewBox="0 0 1000 1000"><rect width="1000" height="1000" fill="#000000"></rect><g transform="matrix(0.7,0,0,0.7,149.57575757575756,282.1265587044535)"><svg viewBox="0 0 396 247" data-background-color="#ffffff" preserveAspectRatio="xMidYMid meet" height="623" width="1000" xmlns="http://www.w3.org/2000/svg" xmlns:xlink="http://www.w3.org/1999/xlink"><g id="tight-bounds" transform="matrix(1,0,0,1,0.2400000000000091,-0.09999999999999432)"><svg viewBox="0 0 395.52 247.2" height="247.2" width="395.52"><g><svg></svg></g><g><svg viewBox="0 0 395.52 247.2" height="247.2" width="395.52"><g transform="matrix(1,0,0,1,75.54432,95.9014267487409)"><svg viewBox="0 0 244.43135999999998 55.39714650251818" height="55.39714650251818" width="244.43135999999998"><g><svg viewBox="0 0 244.43135999999998 55.39714650251818" height="55.39714650251818" width="244.43135999999998"><g><svg viewBox="0 0 244.43135999999998 55.39714650251818" height="55.39714650251818" width="244.43135999999998"><g id="textblocktransform"><svg viewBox="0 0 244.43135999999998 55.39714650251818" height="55.39714650251818" width="244.43135999999998" id="textblock"><g><svg viewBox="0 0 244.43135999999998 55.39714650251818" height="55.39714650251818" width="244.43135999999998"><g transform="matrix(1,0,0,1,0,0)"><svg width="244.43135999999998" viewBox="4.449999809265137 -38.849998474121094 178.6800079345703 40.5" height="55.39714650251818" data-palette-color="#2b2b2b"><path d="M30.8-36.25L36.25-36.25 36.25 1.65Q35.55 0.75 33.55-1.25 31.55-3.25 28.95-5.85 26.35-8.45 23.43-11.3 20.5-14.15 17.9-16.73 15.3-19.3 13.35-21.33 11.4-23.35 10.75-24.2L10.75-24.2 9.8-25.5 9.95-23.9 9.95 0 4.45 0 4.45-37.95Q5-37.25 6.28-35.95 7.55-34.65 9.28-32.93 11-31.2 13.08-29.2 15.15-27.2 17.28-25.15 19.4-23.1 21.48-21.13 23.55-19.15 25.28-17.45 27-15.75 28.25-14.45 29.5-13.15 30-12.5L30-12.5 30.95-11.1 30.8-12.8 30.8-36.25ZM42.7-28.9L42.7-28.9Q42.7-30.1 43.57-30.9 44.45-31.7 45.45-31.7L45.45-31.7Q46.45-31.7 47.3-30.9 48.15-30.1 48.15-28.9L48.15-28.9Q48.15-27.7 47.3-26.93 46.45-26.15 45.45-26.15L45.45-26.15Q44.45-26.15 43.57-26.93 42.7-27.7 42.7-28.9ZM47.5-20.9L47.5 0 43.25 0 43.25-20.9 47.5-20.9ZM65.15-19.05L65.15-19.05 62.9-16.05Q62.85-16.1 62.55-16.3 62.25-16.5 61.77-16.7 61.3-16.9 60.67-17.07 60.05-17.25 59.4-17.25L59.4-17.25Q58.55-17.25 57.72-16.85 56.9-16.45 56.9-15.35L56.9-15.35Q56.9-14.4 57.57-13.8 58.25-13.2 59.25-12.73 60.25-12.25 61.42-11.75 62.6-11.25 63.6-10.53 64.59-9.8 65.27-8.72 65.95-7.65 65.95-6L65.95-6Q65.95-3.2 64.02-1.38 62.1 0.45 58.75 0.45L58.75 0.45Q56.8 0.45 54.92-0.23 53.05-0.9 51.9-2.2L51.9-2.2Q52.25-2.55 52.67-3.1 53.1-3.65 53.52-4.15 53.95-4.65 54.22-4.98 54.5-5.3 54.55-5.3L54.55-5.3Q54.55-5.25 54.92-5 55.3-4.75 55.9-4.48 56.5-4.2 57.25-3.98 58-3.75 58.75-3.75L58.75-3.75Q59.95-3.75 60.8-4.35 61.65-4.95 61.65-5.95L61.65-5.95Q61.65-6.85 60.97-7.38 60.3-7.9 59.3-8.35 58.3-8.8 57.1-9.28 55.9-9.75 54.9-10.5 53.9-11.25 53.22-12.38 52.55-13.5 52.55-15.3L52.55-15.3Q52.55-17 53.17-18.15 53.8-19.3 54.77-20.03 55.75-20.75 56.95-21.08 58.15-21.4 59.25-21.4L59.25-21.4Q60.7-21.4 62.35-20.8 64-20.2 65.15-19.05ZM70.49 0L70.49-38.85 74.74-38.85 74.74-15.85Q75.84-18.35 77.84-19.88 79.84-21.4 82.99-21.45L82.99-21.45Q86.19-21.5 88.12-19.75 90.04-18 90.14-15.2L90.14-15.2 90.14 0 85.84 0 85.84-13.25Q85.74-14.85 84.74-15.98 83.74-17.1 81.59-17.2L81.59-17.2Q80.09-17.2 78.84-16.68 77.59-16.15 76.69-15.25 75.79-14.35 75.27-13.1 74.74-11.85 74.74-10.35L74.74-10.35 74.74 0 70.49 0ZM94.49-10.25L94.49-10.25Q94.49-12.55 95.37-14.58 96.24-16.6 97.74-18.13 99.24-19.65 101.22-20.55 103.19-21.45 105.44-21.45L105.44-21.45Q106.94-21.45 108.19-21.08 109.44-20.7 110.34-20.15 111.24-19.6 111.79-19 112.34-18.4 112.54-17.95L112.54-17.95 112.74-20.9 116.84-20.9 116.84 0 112.54 0 112.54-2.65Q112.29-2.25 111.74-1.7 111.19-1.15 110.32-0.68 109.44-0.2 108.24 0.15 107.04 0.5 105.49 0.5L105.49 0.5Q103.09 0.5 101.07-0.38 99.04-1.25 97.59-2.73 96.14-4.2 95.32-6.15 94.49-8.1 94.49-10.25ZM98.79-10.5L98.79-10.5Q98.79-9.05 99.32-7.8 99.84-6.55 100.74-5.65 101.64-4.75 102.89-4.23 104.14-3.7 105.64-3.7L105.64-3.7Q107.14-3.7 108.42-4.23 109.69-4.75 110.62-5.68 111.54-6.6 112.04-7.83 112.54-9.05 112.54-10.5L112.54-10.5Q112.54-11.95 112.04-13.18 111.54-14.4 110.62-15.3 109.69-16.2 108.42-16.73 107.14-17.25 105.64-17.25L105.64-17.25Q104.14-17.25 102.89-16.73 101.64-16.2 100.74-15.3 99.84-14.4 99.32-13.18 98.79-11.95 98.79-10.5ZM122.84 0L122.84-20.9 126.59-20.9Q126.69-19.35 126.76-18.07 126.84-16.8 126.94-15.55L126.94-15.55Q128.09-18.25 130.21-19.85 132.34-21.45 135.44-21.45L135.44-21.45Q138.59-21.45 140.49-19.7 142.39-17.95 142.49-15.2L142.49-15.2 142.49 0 138.19 0 138.19-13.25Q138.09-14.85 137.09-15.98 136.09-17.1 133.94-17.2L133.94-17.2Q132.44-17.2 131.19-16.68 129.94-16.15 129.04-15.25 128.14-14.35 127.61-13.1 127.09-11.85 127.09-10.35L127.09-10.35 127.09 0 122.84 0ZM150.09-20.85L150.09-30.1 154.34-30.1 154.34-20.85 159.94-20.85 159.94-17.05 154.34-17.05 154.34 0 150.09 0 150.09-17.05 146.34-17.05 146.34-20.85 150.09-20.85ZM163.48 0L163.48-38.85 167.73-38.85 167.73-15.85Q168.83-18.35 170.83-19.88 172.83-21.4 175.98-21.45L175.98-21.45Q179.18-21.5 181.11-19.75 183.03-18 183.13-15.2L183.13-15.2 183.13 0 178.83 0 178.83-13.25Q178.73-14.85 177.73-15.98 176.73-17.1 174.58-17.2L174.58-17.2Q173.08-17.2 171.83-16.68 170.58-16.15 169.68-15.25 168.78-14.35 168.26-13.1 167.73-11.85 167.73-10.35L167.73-10.35 167.73 0 163.48 0Z" opacity="1" transform="matrix(1,0,0,1,0,0)" fill="#ffffff" class="undefined-text-0" data-fill-palette-color="primary" id="text-0"></path></svg></g></svg></g></svg></g></svg></g></svg></g></svg></g><g><path d="M245.816 0c68.262 0 123.6 55.338 123.6 123.6 0 68.262-55.338 123.6-123.6 123.6-56.384 0-103.95-37.755-118.797-89.362h2.602c14.771 50.21 61.202 86.865 116.195 86.864 66.883 0 121.102-54.219 121.102-121.102 0-66.883-54.219-121.102-121.102-121.102-54.992 0-101.423 36.654-116.195 86.864l-2.602 0c14.847-51.608 62.413-89.362 118.797-89.362z" fill="#ffffff" stroke="transparent" data-fill-palette-color="tertiary"></path></g></svg></g><defs></defs></svg><rect width="395.52" height="247.2" fill="none" stroke="none" visibility="hidden"></rect></g></svg></g></svg>